<svg width="14" height="15" viewBox="0 0 14 15" fill="none" xmlns="http://www.w3.org/2000/svg">
<path d="M10.8898 14.4964C10.7776 14.4969 10.667 14.4691 10.5671 14.4154L6.98948 12.4489L3.41183 14.4154C3.29566 14.4795 3.16468 14.5081 3.03378 14.498C2.90288 14.4879 2.77731 14.4394 2.67135 14.3581C2.56539 14.2767 2.48329 14.1658 2.43437 14.038C2.38546 13.9101 2.3717 13.7704 2.39466 13.6347L3.09616 9.48824L0.205981 6.54227C0.115809 6.44779 0.0518417 6.32932 0.020945 6.19957C-0.00995168 6.06982 -0.0066118 5.93368 0.0306063 5.80577C0.0712651 5.67488 0.146056 5.55857 0.246493 5.47005C0.346929 5.38153 0.468989 5.32433 0.598821 5.30496L4.59737 4.69367L6.35813 0.915463C6.41557 0.790943 6.50526 0.685929 6.61692 0.61245C6.72858 0.538972 6.8577 0.5 6.98948 0.5C7.12126 0.5 7.25038 0.538972 7.36204 0.61245C7.4737 0.685929 7.56338 0.790943 7.62083 0.915463L9.40263 4.6863L13.4012 5.29759C13.531 5.31697 13.6531 5.37416 13.7535 5.46269C13.8539 5.55121 13.9287 5.66751 13.9694 5.79841C14.0066 5.92632 14.01 6.06245 13.9791 6.19221C13.9482 6.32196 13.8842 6.44043 13.794 6.5349L10.9038 9.48087L11.6053 13.6273C11.6304 13.7654 11.6173 13.9081 11.5676 14.0386C11.5178 14.1691 11.4336 14.282 11.3247 14.3638C11.1977 14.4573 11.0448 14.5039 10.8898 14.4964Z" fill="#0064E5"/>
</svg>
