<svg width="16" height="16" viewBox="0 0 16 16" fill="none" xmlns="http://www.w3.org/2000/svg">
<path fill-rule="evenodd" clip-rule="evenodd" d="M8.00263 1.87401C6.99541 1.87408 6.00376 2.12255 5.1155 2.5974L8.00263 0.999024C8.17437 0.999124 8.34605 1.00555 8.51732 1.01827L8.45257 1.89064C8.30285 1.87958 8.15276 1.87404 8.00263 1.87401ZM4.70185 1.82501C5.71724 1.28253 6.85074 0.99883 8.00195 0.999024L5.1155 2.5974C4.22724 3.07224 3.4698 3.75882 2.91025 4.59631C2.35071 5.4338 2.00634 6.39636 1.90764 7.39873C1.80894 8.4011 1.95896 9.41234 2.34442 10.3429C2.72987 11.2734 3.33886 12.0945 4.11745 12.7335C4.89603 13.3725 5.82018 13.8096 6.80804 14.0061C7.7959 14.2026 8.81697 14.1525 9.78083 13.8602C10.7445 13.5679 11.6213 13.0424 12.3335 12.3304L12.3331 12.3301C12.4399 12.2234 12.5423 12.1131 12.6394 11.9994L13.3026 12.5707C13.1904 12.7008 13.0735 12.8268 12.9521 12.9484L12.9524 12.9487C12.1385 13.7631 11.1362 14.3642 10.0344 14.6987C8.93259 15.0332 7.76531 15.0907 6.63595 14.8662C5.5066 14.6418 4.45006 14.1422 3.55993 13.4118C2.66979 12.6814 1.97356 11.7427 1.53292 10.6789C1.09227 9.61511 0.920823 8.45906 1.03376 7.31316C1.14669 6.16727 1.54052 5.06693 2.18035 4.10962C2.82018 3.15231 3.68626 2.3676 4.70185 1.82501ZM10.206 2.28438C9.92556 2.17615 9.6375 2.0887 9.34418 2.02276L9.5358 1.16877C9.87092 1.24402 10.2008 1.34377 10.521 1.46802L10.206 2.28438ZM11.4048 2.90562C11.2797 2.82219 11.1515 2.74339 11.0207 2.66937L11.452 1.90813C11.7512 2.07765 12.0375 2.26891 12.3086 2.48038L11.7705 3.17074C11.6519 3.07819 11.5299 2.99005 11.4048 2.90649V2.90562ZM13.0095 4.47185C12.8364 4.22595 12.6455 3.99316 12.4381 3.77536L13.0716 3.17162C13.3079 3.42099 13.5266 3.68786 13.7252 3.96785L13.0095 4.47185ZM13.6605 5.65483C13.6031 5.51611 13.5406 5.37952 13.4732 5.24533L14.2546 4.85159C14.4091 5.15879 14.5407 5.47698 14.6484 5.80358L13.8171 6.07745C13.7701 5.93471 13.7179 5.79374 13.6605 5.65483ZM14.1242 7.84842C14.1172 7.54772 14.0879 7.24795 14.0367 6.95156L14.8986 6.80281C14.9572 7.14056 14.9913 7.48355 15.0001 7.82655L14.1251 7.84842H14.1242ZM14.0096 9.19415C14.0385 9.0454 14.0621 8.89753 14.0805 8.74791L14.9493 8.85553C14.9073 9.19691 14.8401 9.5347 14.7481 9.86614L13.9046 9.63252C13.9449 9.48814 13.9799 9.34202 14.0096 9.19415ZM13.1766 11.2757C13.3376 11.022 13.4794 10.756 13.6019 10.4813L14.4016 10.8356C14.2616 11.1506 14.0997 11.4534 13.916 11.7439L13.1766 11.2757ZM7.87404 3.75216C7.792 3.67012 7.68072 3.62402 7.56469 3.62402C7.44866 3.62402 7.33738 3.67012 7.25534 3.75216C7.17329 3.83421 7.1272 3.94549 7.1272 4.06152V8.87394C7.12722 8.95106 7.14763 9.0268 7.18635 9.09348C7.22507 9.16017 7.28073 9.21544 7.34769 9.25369L10.4101 11.0037C10.5106 11.058 10.6284 11.0708 10.7383 11.0395C10.8481 11.0081 10.9413 10.935 10.998 10.8358C11.0547 10.7367 11.0703 10.6192 11.0416 10.5087C11.0128 10.3981 10.942 10.3032 10.8441 10.2442L8.00218 8.6202V4.06152C8.00218 3.94549 7.95609 3.83421 7.87404 3.75216Z" fill="#9499A3"/>
</svg>
