<svg width="18" height="18" fill="none" xmlns="http://www.w3.org/2000/svg">
<path d="M9.1875 14.75C9.1875 14.75 1.375 10.375 1.375 5.06251C1.375 4.12335 1.70039 3.21321 2.2958 2.48693C2.89121 1.76064 3.71986 1.26308 4.64078 1.0789C5.56169 0.894715 6.51797 1.03529 7.34693 1.4767C8.17588 1.91811 8.82629 2.6331 9.1875 3.50001C9.54871 2.6331 10.1991 1.91811 11.0281 1.4767C11.857 1.03529 12.8133 0.894715 13.7342 1.0789C14.6551 1.26308 15.4838 1.76064 16.0792 2.48693C16.6746 3.21321 17 4.12335 17 5.06251C17 10.375 9.1875 14.75 9.1875 14.75Z" stroke="#A4A8AE" stroke-width="1.5" stroke-linecap="round" stroke-linejoin="round"/>
</svg>
