<svg  viewBox="0 0 166 29" fill="none" xmlns="http://www.w3.org/2000/svg">
    <path d="M15.1108 9.5725C13.6481 8.68882 11.9917 8.23958 10.1901 8.23958C8.64994 8.23958 7.21636 8.58023 5.92322 9.24669C5.20643 9.62188 4.55259 10.0711 3.97625 10.6043V2.51298C3.97625 1.94526 3.77768 1.44665 3.4096 1.06652C2.65891 0.306265 1.29798 0.311186 0.576342 1.08132C0.217945 1.46638 0.0339059 1.94526 0.0339059 2.51792V10.0119C0.00968994 10.1254 0 10.2538 0 10.4019V18.3549C0 20.2358 0.440732 21.9686 1.30282 23.5089C2.16975 25.059 3.37084 26.2883 4.88192 27.172C6.38816 28.0556 8.08329 28.4999 9.92371 28.4999C11.7641 28.4999 13.4592 28.0507 14.9655 27.172C16.4717 26.2883 17.6777 25.0541 18.5397 23.5089C19.4067 21.9637 19.8426 20.2309 19.8426 18.3549C19.8426 16.4839 19.4164 14.7561 18.5737 13.2207C17.7406 11.6854 16.5734 10.4562 15.1108 9.5725ZM15.9729 18.35C15.9729 19.5546 15.7065 20.6505 15.1786 21.6132C14.6555 22.5709 13.9242 23.3361 13.0088 23.889C11.1781 24.9948 8.66931 24.9948 6.85796 23.889C5.95228 23.3361 5.22582 22.5709 4.69791 21.6132C4.17 20.6555 3.90362 19.5546 3.90362 18.35C3.90362 18.0587 3.90845 17.8317 3.92298 17.6688C3.95204 17.57 3.96658 17.4812 3.96658 17.4219C4.16515 15.8224 4.80444 14.5438 5.91837 13.5219C7.02747 12.5049 8.33514 12.0112 9.92371 12.0112C11.057 12.0112 12.0935 12.2877 13.0137 12.8307C13.929 13.3738 14.6603 14.134 15.1834 15.0868C15.7065 16.0495 15.9729 17.1504 15.9729 18.35Z" fill="#1B314B"/>
    <path d="M37.2423 9.66478C35.7506 8.79637 34.0458 8.35969 32.186 8.35969C30.3262 8.35969 28.6165 8.79637 27.1103 9.66478C25.5992 10.5332 24.3981 11.7548 23.5457 13.2954C22.6933 14.8311 22.2623 16.563 22.2623 18.447C22.2623 20.331 22.6933 22.063 23.5457 23.5839C24.4029 25.1147 25.5992 26.3314 27.1103 27.1949C28.6165 28.0584 30.3213 28.5 32.186 28.5C34.0458 28.5 35.7554 28.0633 37.2568 27.1998C38.7679 26.3314 39.9642 25.1196 40.8214 23.5888C41.6738 22.063 42.1048 20.3359 42.1048 18.447C42.1048 16.5581 41.6641 14.8262 40.802 13.2905C39.9399 11.7549 38.7388 10.5332 37.2423 9.66478ZM35.2856 23.9322C33.4936 25.0018 30.9461 25.0214 29.0912 23.9273C28.1758 23.3877 27.4445 22.637 26.9263 21.6852C26.3984 20.7284 26.1368 19.6393 26.1368 18.4421C26.1368 17.2254 26.4032 16.1214 26.9263 15.1647C27.4493 14.2178 28.1758 13.4622 29.0912 12.9226C30.0114 12.3829 31.0478 12.1081 32.1811 12.1081C33.3338 12.1081 34.3799 12.3829 35.2856 12.9176C36.1913 13.4573 36.9081 14.208 37.4215 15.1549C37.9397 16.1116 38.2012 17.2155 38.2012 18.4323C38.2012 19.6294 37.9397 20.7235 37.4215 21.6753C36.9081 22.6419 36.1913 23.3974 35.2856 23.9322Z" fill="#1B314B"/>
    <path d="M78.3859 25.124C78.0412 24.7337 77.5785 24.5288 77.0449 24.5288H76.1714C75.3451 24.5288 74.6936 24.2459 74.1742 23.6653C73.6406 23.0702 73.381 22.3091 73.381 21.348V13.1131H76.365C77.0261 13.1131 77.4368 12.8302 77.6682 12.5911C77.9987 12.2496 78.1734 11.8057 78.1734 11.3129C78.1734 10.7958 77.9987 10.3421 77.6682 10.0006C77.3377 9.65913 76.8891 9.47862 76.365 9.47862H73.381V2.98045C73.381 2.4243 73.1921 1.92669 72.8285 1.55105C72.1014 0.799757 70.7699 0.80462 70.0664 1.56567C69.717 1.94619 69.5423 2.41942 69.5423 2.98045V9.47862H68.1116C67.5922 9.47862 67.139 9.65913 66.8084 10.0006C66.4779 10.3421 66.3033 10.7958 66.3033 11.3129C66.3033 11.8106 66.4779 12.2496 66.8084 12.5911C67.0398 12.8302 67.4506 13.1131 68.1116 13.1131H69.5423V21.348C69.5423 22.6848 69.8256 23.9044 70.3827 24.9728C70.9446 26.046 71.7378 26.9144 72.7483 27.5486C73.7587 28.1779 74.9108 28.4999 76.1714 28.4999H76.8513C77.4132 28.4999 77.8948 28.3145 78.2773 27.9486C78.6739 27.573 78.8864 27.0803 78.8864 26.529C78.8816 25.9777 78.7164 25.5045 78.3859 25.124Z" fill="#1B314B"/>
    <path d="M144.689 25.124C144.345 24.7337 143.882 24.5288 143.348 24.5288H142.475C141.648 24.5288 140.997 24.2459 140.478 23.6653C139.944 23.0702 139.684 22.3091 139.684 21.348V13.1131H142.668C143.329 13.1131 143.74 12.8302 143.972 12.5911C144.302 12.2496 144.477 11.8057 144.477 11.3129C144.477 10.7958 144.302 10.3421 143.972 10.0006C143.641 9.65913 143.192 9.47862 142.668 9.47862H139.684V2.98045C139.684 2.4243 139.495 1.92669 139.132 1.55105C138.405 0.799757 137.073 0.80462 136.37 1.56567C136.02 1.94619 135.846 2.41942 135.846 2.98045V9.47862H134.415C133.896 9.47862 133.442 9.65913 133.112 10.0006C132.781 10.3421 132.607 10.7958 132.607 11.3129C132.607 11.8106 132.781 12.2496 133.112 12.5911C133.343 12.8302 133.754 13.1131 134.415 13.1131H135.846V21.348C135.846 22.6848 136.129 23.9044 136.686 24.9728C137.248 26.046 138.041 26.9144 139.052 27.5486C140.062 28.1779 141.214 28.4999 142.475 28.4999H143.155C143.717 28.4999 144.198 28.3145 144.581 27.9486C144.977 27.573 145.19 27.0803 145.19 26.529C145.185 25.9777 145.02 25.5045 144.689 25.124Z" fill="#1B314B"/>
    <path d="M104.889 9.87563C102.697 8.53121 99.5643 8.53603 97.2808 9.75517C96.4553 10.1985 95.736 10.7816 95.1325 11.4851C94.5822 10.7816 93.9111 10.2033 93.1291 9.76481C91.1787 8.65651 88.5381 8.54567 86.4622 9.49014C85.9794 9.70698 85.5305 9.97682 85.1105 10.29C85.0188 10.0443 84.8836 9.82265 84.6953 9.62508C83.9808 8.87336 82.6146 8.86853 81.8712 9.61061C81.4994 9.98165 81.3063 10.4683 81.3063 11.0225V26.5484C81.3063 27.1074 81.5043 27.5941 81.8857 27.9555C82.6339 28.6686 83.9663 28.659 84.6856 27.941C85.0429 27.5844 85.236 27.0977 85.236 26.5436V16.7664C85.236 15.5328 85.6029 14.5546 86.3656 13.7788C87.1236 13.0078 88.065 12.632 89.2477 12.632C90.3532 12.632 91.2174 13.003 91.8884 13.7692C92.5739 14.5498 92.9263 15.6485 92.9263 17.0314V26.5484C92.9263 27.1074 93.1243 27.5941 93.5056 27.9555C94.2539 28.6686 95.5863 28.6638 96.3056 27.9458C96.6629 27.5892 96.856 27.1026 96.856 26.5484V16.9592C96.8367 15.634 97.1891 14.6028 97.9277 13.8029C98.6567 13.0174 99.598 12.6368 100.795 12.6368C101.901 12.6368 102.765 13.0078 103.436 13.774C104.122 14.5546 104.474 15.6533 104.474 17.0362V26.5532C104.474 27.1122 104.672 27.5989 105.053 27.9603C105.425 28.3169 105.898 28.5 106.458 28.5C107.013 28.5 107.496 28.312 107.858 27.9506C108.22 27.5892 108.408 27.1074 108.408 26.5532V17.0362C108.408 15.4412 108.099 14.0101 107.491 12.7862C106.878 11.5381 105.999 10.5599 104.889 9.87563Z" fill="#1B314B"/>
    <path d="M165.453 19.4724C165.811 19.1241 166 18.6531 166 18.1085C166 16.2539 165.623 14.5711 164.878 13.109C164.123 11.6322 163.054 10.4547 161.69 9.62061C160.326 8.78164 158.744 8.35969 156.988 8.35969C155.189 8.35969 153.559 8.79636 152.142 9.65496C150.724 10.5136 149.597 11.7303 148.799 13.2611C148.011 14.7771 147.609 16.5238 147.609 18.447C147.609 20.3556 148.035 22.0924 148.877 23.6183C149.718 25.149 150.908 26.3609 152.408 27.2146C153.902 28.0682 155.61 28.5 157.492 28.5C158.609 28.5 159.784 28.2792 160.974 27.8327C162.174 27.3912 163.185 26.8221 163.993 26.1303C164.38 25.7721 164.583 25.3256 164.583 24.8399C164.583 24.31 164.355 23.8145 163.867 23.368C163.074 22.7793 162.193 22.8381 161.385 23.4711C160.969 23.8341 160.389 24.1481 159.673 24.3983C158.943 24.6535 158.212 24.7811 157.492 24.7811C155.794 24.7811 154.43 24.2806 153.312 23.2503C152.374 22.3819 151.784 21.3123 151.523 19.9974H164.123C164.65 19.9827 165.1 19.811 165.453 19.4724ZM151.614 16.4305C151.905 15.2285 152.451 14.2521 153.274 13.472C154.256 12.5349 155.47 12.0836 156.979 12.0836C158.464 12.0836 159.639 12.535 160.573 13.4622C161.361 14.2473 161.869 15.2236 162.111 16.4305H151.614Z" fill="#1B314B"/>
    <path fill-rule="evenodd" clip-rule="evenodd" d="M54.2065 8.35969C56.0001 8.35969 57.6576 8.80334 59.1272 9.68091C59.4367 9.86572 59.733 10.0659 60.0159 10.2812C60.0617 9.80367 60.2525 9.39261 60.5733 9.07637C61.3011 8.3548 62.6064 8.34993 63.3295 9.10562C63.691 9.48102 63.8835 9.96857 63.8835 10.5097V18.4128C63.8835 18.4193 63.8835 18.4258 63.8835 18.4323C63.8835 18.4388 63.8835 18.4453 63.8835 18.4518V26.3548C63.8835 26.896 63.691 27.3835 63.3295 27.7589C62.6064 28.5146 61.3058 28.5146 60.5733 27.7882C60.2513 27.4707 60.0602 27.0541 60.0154 26.5765C59.7327 26.7922 59.4365 26.993 59.1272 27.1788C57.6576 28.0563 56.0048 28.5 54.2065 28.5C54.1617 28.5 54.117 28.4997 54.0723 28.4992C54.0295 28.4997 53.9866 28.5 53.9436 28.5C52.1876 28.5 50.5724 28.0563 49.145 27.1739C47.7177 26.2963 46.5814 25.0775 45.7597 23.5514C44.9428 22.0254 44.5249 20.3093 44.5249 18.4469C44.5249 18.4412 44.5249 18.4355 44.5249 18.4298C44.5249 18.4242 44.5249 18.4185 44.5249 18.4128C44.5249 16.5504 44.9381 14.8342 45.7597 13.3082C46.5814 11.7822 47.7177 10.5634 49.145 9.68579C50.5724 8.80822 52.1876 8.35969 53.9436 8.35969C53.9864 8.35969 54.0292 8.35997 54.0719 8.36053C54.1167 8.35997 54.1616 8.35969 54.2065 8.35969ZM60.0756 18.4202C60.0724 19.6205 59.8096 20.7003 59.3009 21.65C58.7891 22.6007 58.0801 23.3613 57.1974 23.9122C56.3147 24.4583 55.3099 24.7362 54.2065 24.7362C53.0891 24.7362 52.1031 24.4631 51.1969 23.9073C50.3001 23.3564 49.5911 22.5959 49.0793 21.6452C48.5699 20.6941 48.3071 19.6127 48.3046 18.42C48.3071 17.2323 48.5653 16.146 49.0793 15.195C49.5911 14.2443 50.3048 13.4837 51.1969 12.9328C52.1031 12.377 53.0891 12.104 54.2065 12.104C55.3099 12.104 56.3147 12.3819 57.1974 12.9279C58.0848 13.4789 58.7891 14.2394 59.3009 15.1901C59.8096 16.1544 60.0724 17.2343 60.0756 18.4202Z" fill="#1B314B"/>
    <path fill-rule="evenodd" clip-rule="evenodd" d="M120.51 8.35969C122.303 8.35969 123.961 8.80334 125.43 9.68091C125.74 9.86572 126.036 10.0659 126.319 10.2812C126.365 9.80367 126.556 9.39261 126.876 9.07637C127.604 8.3548 128.909 8.34993 129.632 9.10562C129.994 9.48102 130.186 9.96857 130.186 10.5097V18.4128C130.186 18.4193 130.186 18.4258 130.186 18.4323C130.186 18.4388 130.186 18.4453 130.186 18.4518V26.3548C130.186 26.896 129.994 27.3835 129.632 27.7589C128.909 28.5146 127.609 28.5146 126.876 27.7882C126.554 27.4707 126.363 27.0541 126.318 26.5765C126.036 26.7922 125.739 26.993 125.43 27.1788C123.961 28.0563 122.308 28.5 120.51 28.5C120.465 28.5 120.42 28.4997 120.375 28.4992C120.332 28.4997 120.29 28.5 120.247 28.5C118.491 28.5 116.875 28.0563 115.448 27.1739C114.021 26.2963 112.884 25.0775 112.063 23.5514C111.246 22.0254 110.828 20.3093 110.828 18.4469C110.828 18.4412 110.828 18.4355 110.828 18.4298C110.828 18.4242 110.828 18.4185 110.828 18.4128C110.828 16.5504 111.241 14.8342 112.063 13.3082C112.884 11.7822 114.021 10.5634 115.448 9.68579C116.875 8.80822 118.491 8.35969 120.247 8.35969C120.289 8.35969 120.332 8.35997 120.375 8.36053C120.42 8.35997 120.465 8.35969 120.51 8.35969ZM126.379 18.4202C126.375 19.6205 126.113 20.7003 125.604 21.65C125.092 22.6007 124.383 23.3613 123.5 23.9122C122.618 24.4583 121.613 24.7362 120.51 24.7362C119.392 24.7362 118.406 24.4631 117.5 23.9073C116.603 23.3564 115.894 22.5959 115.382 21.6452C114.873 20.6941 114.61 19.6127 114.608 18.42C114.61 17.2323 114.868 16.146 115.382 15.195C115.894 14.2443 116.608 13.4837 117.5 12.9328C118.406 12.377 119.392 12.104 120.51 12.104C121.613 12.104 122.618 12.3819 123.5 12.9279C124.388 13.4789 125.092 14.2394 125.604 15.1901C126.113 16.1544 126.375 17.2343 126.379 18.4202Z" fill="#1B314B"/>
    </svg>
    